<?xml version="1.0" ?><svg viewBox="0 0 512 512" xmlns="http://www.w3.org/2000/svg"><title/><g id="Burger"><path d="M414.8181,282.7737a50.893,50.893,0,0,1-6.75-6.7759l8.5359-4.9282a12.8509,12.8509,0,0,0,0-22.2577l-6.474-3.7369c8.1966-11.64,12.7444-24.3943,12.7444-37.7678,0-69.38-74.8689-125.8266-166.898-125.8266s-166.9,56.4462-166.9,125.8266c0,13.3819,4.5527,26.1443,12.76,37.7905l-6.432,3.7142a12.8488,12.8488,0,0,0,0,22.2552l8.497,4.9058a50.83,50.83,0,0,1-6.7588,6.7884c-5.5732,4.9431-11.8909,10.5436-11.8909,18.51,0,7.9637,6.3153,13.5618,11.8859,18.5a68.493,68.493,0,0,1,5.6351,5.4191c1.3578,22.668,6.2212,40.7909,21.5608,57.5764,25.5821,28.9788,76.0343,46.9808,131.6711,46.9808,55.8958,0,106.44-18.114,131.9426-47.2846,15.1443-16.7459,19.9552-34.7948,21.2977-57.3346a69.704,69.704,0,0,1,5.567-5.3446c5.5756-4.9406,11.8933-10.5437,11.8933-18.5124C426.704,293.31,420.3888,287.7119,414.8181,282.7737ZM99.2755,207.3072c0-63.7575,70.2944-115.6266,156.7005-115.6266,86.4037,0,156.698,51.8691,156.698,115.6266,0,48.7612-70.2943,88.4307-156.698,88.4307C169.57,295.7379,99.2755,256.0684,99.2755,207.3072Zm1.2277,54.9271a2.6477,2.6477,0,0,1,0-4.587l7.7721-4.4881c27.9809,31.349,83.6715,52.7787,147.7007,52.7787,64.0429,0,119.7426-21.4391,147.7167-52.7992l7.8109,4.5086a2.6477,2.6477,0,0,1,0,4.587L265.0181,346.8076a18.0524,18.0524,0,0,1-18.0268,0Zm279.82,113.4525c-.0772.0847-.1544.1694-.2341.2541l-.015.0174c-.0747.0847-.1469.1693-.2166.2565-23.7593,26.7426-71.1211,43.3326-123.8543,43.3326-52.8,0-100.3241-16.6846-124.0834-43.6065a68.4033,68.4033,0,0,1-9.103-12.5315,62.92,62.92,0,0,0,10.1464.88c4.8261.1568,9.8141.3212,12.9219,2.0544,2.4976,1.3945,4.9306,5.2842,7.2839,9.047,3.5585,5.6877,7.5927,12.135,14.3562,14.5853,6.0787,2.2014,12.608.1693,18.9233-1.7979,4.6368-1.4469,9.438-2.946,12.7973-2.1914,2.931.6474,6.4248,3.8723,9.804,6.99,4.7863,4.4176,10.2125,9.4255,17.0656,10.1452,6.4647.6748,12.3317-2.7791,18.0193-6.1235,4.1662-2.4479,8.4744-4.98,11.8411-4.98,3.3693,0,7.68,2.5326,11.8486,4.983,5.2,3.0555,10.561,6.2056,16.3757,6.2056a16.0054,16.0054,0,0,0,1.6461-.0846c6.8531-.72,12.2793-5.7276,17.068-10.1452,3.3793-3.12,6.8731-6.3452,9.8091-6.9927,3.3593-.7445,8.1555.7471,12.79,2.1915,6.3153,1.97,12.8472,4.0018,18.9183,1.7979,6.761-2.45,10.7927-8.8951,14.3512-14.5828,2.3509-3.76,4.7838-7.65,7.2765-9.0395,3.1078-1.7357,8.0958-1.8976,12.9193-2.0545a62.0442,62.0442,0,0,0,10.2331-.8971A68.173,68.173,0,0,1,380.3234,375.6868Zm27.7213-63.5333c-3.7877,3.3568-7.7023,6.8257-10.0431,11.1488-2.291,4.2334-2.7443,9.4778-3.1851,14.5479-.4856,5.5857-.9861,11.363-3.9171,13.9976-2.1466,1.9275-7.2839,2.0943-12.2519,2.2562-5.76.1868-12.2868.3984-17.5587,3.3369-4.7812,2.67-7.9189,7.6873-10.9545,12.5409-2.814,4.4973-5.7226,9.1491-9.1765,10.4016-2.8463,1.0235-7.7073-.4856-12.4114-1.9473-5.9068-1.84-12.02-3.73-18.0267-2.4131-5.623,1.2451-10.1478,5.4188-14.5231,9.458-3.7976,3.5062-7.7272,7.13-11.216,7.4956-3.1153.3336-7.5255-2.2662-11.7888-4.7713-5.344-3.14-10.87-6.3875-17.0158-6.3875-6.1434,0-11.6667,3.2473-17.0108,6.3875-4.2607,2.5051-8.6809,5.1-11.7837,4.7713-3.4889-.3661-7.416-3.9894-11.2136-7.4931-4.3728-4.0392-8.8976-8.2129-14.5181-9.458-6.0288-1.32-12.1249.5753-18.0317,2.413-4.7066,1.4643-9.57,2.9684-12.4188,1.9474-3.4565-1.2525-6.3676-5.9068-9.1816-10.4067-3.038-4.8534-6.1782-9.8712-10.9619-12.5408-5.2694-2.941-11.7988-3.1551-17.5587-3.3443-4.97-.1619-10.11-.3313-12.2569-2.2587-2.9335-2.6372-3.4341-8.4145-3.9172-14-.4382-5.07-.889-10.3145-3.18-14.5479-2.3383-4.3231-6.2529-7.792-10.0406-11.1489-4.1562-3.683-8.4518-7.4931-8.4518-10.8673,0-3.3793,4.3006-7.1918,8.4567-10.8773,1.1369-1.0083,2.2634-2.0423,3.3672-3.0964,7.452,48.6272,71.2917,86.7408,148.7015,86.7408,77.4006,0,141.2365-38.1043,148.7019-86.7227,1.1088,1.05,2.2384,2.084,3.3742,3.0907,4.1563,3.6831,8.4519,7.4906,8.4519,10.8649C416.504,304.6505,412.2034,308.4655,408.0447,312.1535Z"/><path d="M218.1245,181.03a5.0994,5.0994,0,0,0,7.2117-7.2117l-10.0855-10.083a5.0995,5.0995,0,0,0-7.2117,7.2118Z"/><path d="M218.1245,129.5372a5.0995,5.0995,0,0,0,7.2117-7.2118L215.2507,112.24a5.0994,5.0994,0,0,0-7.2117,7.2117Z"/><path d="M296.7586,181.03a5.0994,5.0994,0,1,0,7.2117-7.2117l-10.083-10.083a5.0994,5.0994,0,0,0-7.2116,7.2118Z"/><path d="M296.7586,129.5372a5.0995,5.0995,0,1,0,7.2117-7.2118L293.8873,112.24a5.0994,5.0994,0,1,0-7.2116,7.2117Z"/><path d="M250.9333,156.7778l.0149-.0028.015.0028a5.0833,5.0833,0,0,0,3.6058-1.4941l10.083-10.083a5.1092,5.1092,0,0,0-7.2391-7.2117l-10.0854,10.083a5.1,5.1,0,0,0,3.6058,8.7058Z"/><path d="M172.2394,156.7778a5.0835,5.0835,0,0,0,3.6059-1.4941l10.0829-10.083a5.0994,5.0994,0,0,0-7.2117-7.2117l-10.083,10.083a5.1,5.1,0,0,0,3.6059,8.7058Z"/><path d="M329.5973,156.7778a5.0835,5.0835,0,0,0,3.6059-1.4941l10.0854-10.083a5.0994,5.0994,0,1,0-7.2117-7.2117l-10.0854,10.083a5.1,5.1,0,0,0,3.6058,8.7058Z"/></g></svg>